<svg width="27" height="32" viewBox="0 0 27 32" fill="none" xmlns="http://www.w3.org/2000/svg">
<g clip-path="url(#clip0_401_10)">
<path d="M25.2329 31.3913H2.33273C1.80683 31.3913 1.31199 31.1703 0.975046 30.7855C0.643389 30.4064 0.503987 29.912 0.590535 29.4258L2.70865 6.96397L2.71261 6.94319C2.86655 6.14339 3.59725 5.56274 4.45084 5.56274H23.1796C24.0351 5.56274 24.7665 6.14528 24.9184 6.94823L24.9244 6.99042L26.9758 29.4315C27.0603 29.9164 26.9203 30.4102 26.5886 30.788C26.2517 31.1722 25.7575 31.3926 25.2323 31.3926L25.2329 31.3913ZM3.67653 7.09245L1.55908 29.5505L1.55512 29.5713C1.51283 29.7917 1.57494 30.0172 1.72557 30.1897C1.8762 30.3623 2.09753 30.4612 2.33339 30.4612H25.2329C25.4681 30.4612 25.6895 30.3623 25.8401 30.1904C25.9907 30.0184 26.0535 29.7936 26.0112 29.5732L26.0053 29.531L23.9539 7.09433C23.8786 6.74481 23.5555 6.49291 23.1789 6.49291H4.45018C4.07492 6.49291 3.75251 6.74356 3.67587 7.09245H3.67653Z" fill="#37322F"/>
<path d="M18.5026 10.7766C18.2331 10.7766 18.0144 10.5681 18.0144 10.3112V4.96382C18.0144 2.73948 16.1163 0.930164 13.7828 0.930164C11.4493 0.930164 9.55118 2.73948 9.55118 4.96382V10.3112C9.55118 10.5681 9.3325 10.7766 9.06294 10.7766C8.79339 10.7766 8.57471 10.5681 8.57471 10.3112V4.96382C8.57537 2.22685 10.9115 0 13.7828 0C16.6541 0 18.9902 2.22685 18.9902 4.96382V10.3112C18.9902 10.5681 18.7715 10.7766 18.502 10.7766H18.5026Z" fill="#37322F"/>
<path d="M10.0588 10.5333C10.1878 10.0088 9.84622 9.48388 9.29593 9.36095C8.74565 9.23802 8.195 9.56359 8.06604 10.0881C7.93707 10.6127 8.27861 11.1376 8.8289 11.2605C9.37919 11.3834 9.92983 11.0579 10.0588 10.5333Z" fill="#37322F"/>
<path d="M19.2256 11.0006C19.6253 10.6197 19.6253 10.002 19.2256 9.62106C18.8259 9.24011 18.178 9.24011 17.7783 9.62106C17.3787 10.002 17.3787 10.6197 17.7783 11.0006C18.178 11.3816 18.8259 11.3816 19.2256 11.0006Z" fill="#37322F"/>
</g>
<defs>
<clipPath id="clip0_401_10">
<rect width="26.4348" height="31.3913" fill="white" transform="translate(0.564941)"/>
</clipPath>
</defs>
</svg>
