<svg width="28" height="28" viewBox="0 0 28 28" fill="none" xmlns="http://www.w3.org/2000/svg">
<path d="M18.2291 17.0568C16.9376 18.9456 15.0465 19.8381 12.8333 19.8381C10.1453 19.8381 7.84463 17.7696 8.17479 15.0268C8.54229 11.9841 10.9048 10.6751 14.8341 10.1933C15.5353 10.1081 15.8258 10.0836 17.339 9.9716L17.5 9.95993V9.7091C17.5 7.61376 16.254 6.18343 14.5833 6.18343C12.9068 6.18343 11.7366 7.05493 11.0191 9.13043L8.81413 8.36976C9.84896 5.37143 11.8918 3.8501 14.5833 3.8501C17.6201 3.8501 19.8333 6.3911 19.8333 9.7091C19.8333 12.7996 20.0235 15.2578 20.3968 16.1923C20.8121 17.2329 20.9638 17.4954 21.4281 18.0741L19.6081 19.5336C18.998 18.7729 18.7296 18.3098 18.2303 17.0579V17.0568H18.2291ZM24.7998 23.9693C24.4836 24.2026 23.9341 24.0638 24.1826 23.4559C24.4918 22.6999 24.8208 21.8133 24.4883 21.4119C24.2433 21.1144 23.9435 20.9663 23.2901 20.9663C22.7535 20.9663 22.4851 21.0363 22.1293 21.0596C21.8913 21.0748 21.7875 20.7131 22.0231 20.5463C22.3317 20.3252 22.6746 20.1565 23.0381 20.0469C24.3798 19.6456 25.9606 19.8661 26.1531 20.1438C26.579 20.7621 25.921 23.1398 24.7998 23.9693ZM23.4208 22.7046C23.1178 22.9977 22.7942 23.2687 22.4525 23.5154C19.9768 25.4008 16.7708 26.3854 13.9848 26.3854C9.50129 26.3854 5.49146 24.2936 2.44879 20.7913C2.18863 20.5229 2.40446 20.1309 2.70896 20.3433C5.98729 22.7664 10.045 24.2318 14.2461 24.2318C16.8886 24.2318 19.7388 23.6053 22.4536 22.2566C22.6426 22.1679 22.855 22.0466 23.0405 21.9603C23.4686 21.7153 23.8455 22.3173 23.4208 22.7046ZM17.5116 12.2979C16.044 12.4076 15.7663 12.4298 15.1176 12.5091C12.1403 12.8743 10.6878 13.6793 10.4918 15.3068C10.3448 16.5236 11.4368 17.5048 12.8333 17.5048C15.2121 17.5048 16.9365 16.0721 17.5256 12.2979H17.5116Z" fill="#37322F"/>
</svg>
