<svg width="23" height="23" viewBox="0 0 23 23" fill="none" xmlns="http://www.w3.org/2000/svg">
<path d="M14.3302 1.43001L14.3304 1.43001C15.3005 1.42705 16.2701 1.47685 17.2348 1.57916C17.3379 1.59282 17.4325 1.64345 17.501 1.72163C17.5697 1.79997 17.6076 1.90062 17.6076 2.00482V2.00484V5.3063C17.6076 5.42012 17.5623 5.52928 17.4819 5.60977C17.4014 5.69025 17.2922 5.73547 17.1784 5.73547H15.2243C14.6412 5.73547 14.284 5.83196 14.0766 6.06227C13.8704 6.29125 13.825 6.6394 13.825 7.10317V8.98055V9.03055H13.875H17.05H17.05C17.1111 9.03052 17.1715 9.04353 17.2271 9.06872C17.2828 9.0939 17.3324 9.13067 17.3727 9.17658C17.413 9.22249 17.4431 9.27647 17.4608 9.33492C17.4786 9.39337 17.4837 9.45494 17.4757 9.51551L17.4757 9.51561L16.9994 13.2051C16.9859 13.3084 16.9352 13.4033 16.8569 13.472C16.7786 13.5407 16.6779 13.5785 16.5737 13.5785H16.5737H13.875H13.825V13.6285V21.0268C13.825 21.1406 13.7798 21.2498 13.6993 21.3303C13.6188 21.4107 13.5097 21.456 13.3958 21.456H9.58359C9.46977 21.456 9.36061 21.4107 9.28013 21.3303C9.19964 21.2498 9.15443 21.1406 9.15443 21.0268V13.6285V13.5785H9.10443H6.39714C6.28331 13.5785 6.17415 13.5332 6.09367 13.4528C6.01318 13.3723 5.96797 13.2631 5.96797 13.1493V9.45972C5.96797 9.34589 6.01318 9.23673 6.09367 9.15625C6.17415 9.07576 6.28331 9.03055 6.39714 9.03055H9.10443H9.15443V8.98055V6.73709C9.15443 5.09504 9.65192 3.76932 10.5445 2.85434C11.437 1.9395 12.7296 1.43001 14.3302 1.43001ZM16.6993 4.87617L16.7492 4.87614V4.82617V2.43705V2.39121L16.7036 2.38724C16.1733 2.34113 15.2988 2.28834 14.3302 2.28834C12.9839 2.28834 11.9029 2.70291 11.1587 3.47006C10.4146 4.23701 10.0128 5.35042 10.0128 6.73709V9.46067C10.0128 9.5745 9.96755 9.68366 9.88706 9.76414C9.80658 9.84462 9.69742 9.88984 9.58359 9.88984H6.87726H6.82726V9.93984V12.6711V12.7211H6.87726H9.58359C9.69742 12.7211 9.80658 12.7663 9.88706 12.8468C9.96755 12.9273 10.0128 13.0364 10.0128 13.1503V20.5467V20.5967H10.0628H12.9167H12.9667V20.5467V13.1503C12.9667 13.0364 13.0119 12.9273 13.0924 12.8468C13.1729 12.7663 13.282 12.7211 13.3958 12.7211H16.152H16.196L16.2016 12.6775L16.5552 9.94626L16.5625 9.88984H16.5056H13.395C13.2813 9.88961 13.1724 9.8443 13.0921 9.76384C13.0118 9.68338 12.9667 9.57435 12.9667 9.46067V7.10317C12.9667 6.61711 13.0268 6.06158 13.3356 5.62795C13.6419 5.19782 14.201 4.87713 15.2234 4.87713H15.2234L16.6993 4.87617Z" fill="#37322F" stroke="#F6EFE8" stroke-width="0.1"/>
</svg>
