<svg width="35" height="35" viewBox="0 0 35 35" fill="none" xmlns="http://www.w3.org/2000/svg">
<path d="M17.5 11.4844C16.3102 11.4844 15.1472 11.8372 14.1579 12.4982C13.1686 13.1592 12.3976 14.0987 11.9423 15.1979C11.487 16.2971 11.3678 17.5067 11.6 18.6736C11.8321 19.8405 12.405 20.9124 13.2463 21.7537C14.0876 22.595 15.1595 23.1679 16.3264 23.4C17.4933 23.6322 18.7029 23.513 19.8021 23.0577C20.9013 22.6024 21.8408 21.8314 22.5018 20.8421C23.1628 19.8528 23.5156 18.6898 23.5156 17.5C23.5156 15.9046 22.8818 14.3745 21.7537 13.2463C20.6255 12.1182 19.0954 11.4844 17.5 11.4844ZM17.5 22.4219C16.5265 22.4219 15.575 22.1332 14.7656 21.5924C13.9562 21.0516 13.3253 20.2829 12.9528 19.3835C12.5803 18.4842 12.4828 17.4945 12.6727 16.5398C12.8626 15.585 13.3314 14.708 14.0197 14.0197C14.708 13.3314 15.585 12.8626 16.5398 12.6727C17.4945 12.4828 18.4842 12.5803 19.3835 12.9528C20.2829 13.3253 21.0516 13.9562 21.5924 14.7656C22.1332 15.575 22.4219 16.5265 22.4219 17.5C22.4219 18.8054 21.9033 20.0573 20.9803 20.9803C20.0573 21.9033 18.8054 22.4219 17.5 22.4219ZM23.5156 4.375H11.4844C9.59885 4.375 7.79055 5.12402 6.45729 6.45729C5.12402 7.79055 4.375 9.59885 4.375 11.4844V23.5156C4.375 24.4492 4.55889 25.3737 4.91617 26.2363C5.27345 27.0988 5.79712 27.8825 6.45729 28.5427C7.79055 29.876 9.59885 30.625 11.4844 30.625H23.5156C24.4492 30.625 25.3737 30.4411 26.2363 30.0838C27.0988 29.7266 27.8825 29.2029 28.5427 28.5427C29.2029 27.8825 29.7266 27.0988 30.0838 26.2363C30.4411 25.3737 30.625 24.4492 30.625 23.5156V11.4844C30.625 10.5508 30.4411 9.62628 30.0838 8.76374C29.7266 7.90119 29.2029 7.11745 28.5427 6.45729C27.8825 5.79712 27.0988 5.27345 26.2363 4.91617C25.3737 4.55889 24.4492 4.375 23.5156 4.375ZM29.5312 23.5156C29.5312 25.1111 28.8975 26.6412 27.7693 27.7693C26.6412 28.8975 25.1111 29.5312 23.5156 29.5312H11.4844C9.88893 29.5312 8.35883 28.8975 7.23069 27.7693C6.10254 26.6412 5.46875 25.1111 5.46875 23.5156V11.4844C5.46875 9.88893 6.10254 8.35883 7.23069 7.23069C8.35883 6.10254 9.88893 5.46875 11.4844 5.46875H23.5156C25.1111 5.46875 26.6412 6.10254 27.7693 7.23069C28.8975 8.35883 29.5312 9.88893 29.5312 11.4844V23.5156ZM25.7031 10.3906C25.7031 10.6069 25.639 10.8184 25.5188 10.9983C25.3986 11.1781 25.2278 11.3183 25.0279 11.4011C24.8281 11.4839 24.6082 11.5056 24.396 11.4634C24.1838 11.4212 23.9889 11.317 23.836 11.164C23.683 11.0111 23.5788 10.8162 23.5366 10.604C23.4944 10.3918 23.5161 10.1719 23.5989 9.97206C23.6817 9.77221 23.8219 9.60139 24.0017 9.4812C24.1816 9.36102 24.3931 9.29688 24.6094 9.29688C24.8995 9.29688 25.1777 9.41211 25.3828 9.61723C25.5879 9.82235 25.7031 10.1005 25.7031 10.3906Z" fill="#37322F"/>
</svg>
