<svg width="31" height="27" viewBox="0 0 31 27" fill="none" xmlns="http://www.w3.org/2000/svg">
<path d="M30.2707 3.91413C30.2288 3.81044 30.1569 3.7216 30.0642 3.65898C29.9715 3.59636 29.8623 3.56279 29.7504 3.56256H25.1379C24.626 2.55922 23.85 1.71463 22.8934 1.11988C21.9368 0.525125 20.8361 0.202768 19.7098 0.187565C18.0587 0.18006 16.4718 0.826865 15.2964 1.98646C14.121 3.14605 13.4528 4.724 13.4379 6.37506V7.95006C7.23635 6.62819 2.07541 1.5235 2.01916 1.48131C1.94858 1.40621 1.85826 1.35251 1.75856 1.32638C1.65887 1.30025 1.55382 1.30273 1.45547 1.33356C1.35713 1.36439 1.26945 1.4223 1.20251 1.50066C1.13556 1.57903 1.09206 1.67467 1.07697 1.77663C-0.132403 8.35788 1.83635 12.7594 3.70666 15.2907C4.75438 16.729 6.06108 17.9594 7.55978 18.9188C5.35197 21.7876 1.47072 23.2641 1.42853 23.2923C1.34952 23.3218 1.27816 23.3687 1.21973 23.4296C1.16131 23.4904 1.11733 23.5637 1.09104 23.6438C1.06437 23.7234 1.05684 23.8082 1.06905 23.8913C1.08127 23.9743 1.11289 24.0534 1.16135 24.1219C1.18947 24.1782 1.5551 24.6844 2.49729 25.1626C3.6926 25.7532 5.29572 26.0626 7.25041 26.0626C16.9395 26.0626 25.0395 18.5391 25.7567 8.90631L30.1442 4.51882C30.2253 4.44353 30.281 4.34493 30.3037 4.23661C30.3263 4.1283 30.3148 4.01562 30.2707 3.91413ZM24.8145 8.25944C24.7171 8.35778 24.6574 8.48718 24.6457 8.62506C24.0692 17.7798 16.4192 24.9376 7.25041 24.9376C4.74728 24.9376 3.36916 24.3891 2.6801 23.9673C4.1426 23.2923 7.10979 21.6751 8.83947 19.0594C8.88692 18.9958 8.91919 18.9222 8.93382 18.8442C8.94844 18.7662 8.94503 18.6859 8.92385 18.6094C8.90227 18.5315 8.86492 18.4589 8.81413 18.396C8.76333 18.3331 8.70016 18.2813 8.62854 18.2438C8.60041 18.2298 6.47697 17.1469 4.60666 14.6157C2.27229 11.4376 1.40041 7.54225 2.01916 3.00006C3.81916 4.58913 8.45978 8.2735 13.902 9.1735C13.9829 9.18809 14.066 9.18561 14.1459 9.16624C14.2258 9.14687 14.3008 9.11102 14.366 9.061C14.4281 9.00666 14.4778 8.93962 14.5118 8.86441C14.5458 8.78921 14.5632 8.70758 14.5629 8.62506V6.37506C14.5777 5.02482 15.1255 3.73513 16.0869 2.78692C17.0483 1.8387 18.3454 1.30877 19.6957 1.31256C20.6685 1.32771 21.6164 1.62205 22.4267 2.16056C23.2369 2.69907 23.8754 3.45906 24.266 4.35006C24.3086 4.45226 24.381 4.53919 24.4739 4.59942C24.5668 4.65966 24.6757 4.69039 24.7863 4.68756H28.3863L24.8145 8.25944Z" fill="#37322F"/>
</svg>
