<svg width="28" height="28" viewBox="0 0 28 28" fill="none" xmlns="http://www.w3.org/2000/svg">
<path d="M17.8609 13.4531L12.6109 9.9531C12.5121 9.88799 12.3975 9.85084 12.2792 9.84557C12.161 9.8403 12.0435 9.86711 11.9392 9.92316C11.835 9.97921 11.7478 10.0624 11.687 10.164C11.6262 10.2655 11.594 10.3816 11.5938 10.5V17.5C11.5939 17.6193 11.6265 17.7363 11.6882 17.8384C11.7499 17.9406 11.8382 18.024 11.9437 18.0797C12.0474 18.1356 12.1643 18.1621 12.2819 18.1563C12.3995 18.1505 12.5133 18.1127 12.6109 18.0468L17.8609 14.5468C17.9512 14.487 18.0252 14.4057 18.0764 14.3103C18.1276 14.2149 18.1544 14.1083 18.1544 14C18.1544 13.8917 18.1276 13.7851 18.0764 13.6896C18.0252 13.5942 17.9512 13.513 17.8609 13.4531ZM12.9062 16.275V11.725L16.3187 14L12.9062 16.275ZM25.4187 7.68903C25.3236 7.31989 25.1421 6.97864 24.8891 6.6934C24.6362 6.40816 24.3192 6.18709 23.9641 6.04841C20.2344 4.6156 14.2516 4.63747 14 4.63747C13.7484 4.63747 7.76562 4.6156 4.03594 6.04841C3.68084 6.18709 3.36377 6.40816 3.11086 6.6934C2.85795 6.97864 2.67643 7.31989 2.58125 7.68903C2.29688 8.76091 1.96875 10.7297 1.96875 14C1.96875 17.2703 2.29688 19.239 2.58125 20.3109C2.67643 20.6801 2.85795 21.0213 3.11086 21.3065C3.36377 21.5918 3.68084 21.8129 4.03594 21.9515C7.76562 23.3843 13.7484 23.3625 14 23.3625H14.0766C14.8312 23.3625 20.4094 23.3187 23.9641 21.9515C24.3192 21.8129 24.6362 21.5918 24.8891 21.3065C25.1421 21.0213 25.3236 20.6801 25.4187 20.3109C25.7031 19.239 26.0312 17.2703 26.0312 14C26.0312 10.7297 25.7031 8.76091 25.4187 7.68903ZM24.15 19.9828C24.107 20.1497 24.0251 20.3041 23.911 20.4333C23.797 20.5626 23.654 20.663 23.4937 20.7265C19.9937 22.0718 14.0656 22.05 14 22.05C13.9344 22.05 8.00625 22.0718 4.50625 20.7265C4.346 20.663 4.20302 20.5626 4.08897 20.4333C3.97492 20.3041 3.89304 20.1497 3.85 19.9828C3.5875 18.9765 3.28125 17.1281 3.28125 14C3.28125 10.8718 3.5875 9.02341 3.85 8.01716C3.89304 7.85025 3.97492 7.69587 4.08897 7.56662C4.20302 7.43736 4.346 7.3369 4.50625 7.27341C8.00625 5.9281 13.9344 5.94997 14 5.94997C14.0656 5.94997 19.9937 5.9281 23.4937 7.27341C23.654 7.3369 23.797 7.43736 23.911 7.56662C24.0251 7.69587 24.107 7.85025 24.15 8.01716C24.4125 9.02341 24.7188 10.8718 24.7188 14C24.7188 17.1281 24.4125 18.9765 24.15 19.9828Z" fill="#37322F"/>
</svg>
